<svg width="267" height="98" viewBox="0 0 267 98" fill="none" xmlns="http://www.w3.org/2000/svg">
<path d="M37.9563 81.3712H44.4509V74.8779H37.9563V81.3712Z" fill="white"/>
<path d="M28.223 81.3712H34.7177V74.8779H28.223V81.3712Z" fill="white"/>
<path d="M37.9563 90.9125H44.4509V84.4192H37.9563V90.9125Z" fill="white"/>
<path d="M28.223 90.9125H34.7177V84.4192H28.223V90.9125Z" fill="white"/>
<path d="M14.7013 89.2839L42.8227 45.4772H33.0907L0 97.0225H0.534667C6.268 97.0225 11.6053 94.1065 14.7013 89.2839Z" fill="white"/>
<path d="M57.9173 17.056C58.608 17.056 59.2853 16.9027 59.956 16.596C60.6253 16.2907 61.228 15.86 61.7667 15.304C62.3013 14.7507 62.7307 14.08 63.0573 13.2947C63.3827 12.5107 63.5453 11.64 63.5453 10.6813C63.5453 9.496 63.2587 8.548 62.684 7.83867C62.1093 7.13067 61.3427 6.77734 60.388 6.77734H50.3947L48.2133 17.056H57.9173ZM55.448 34.0533C56.1747 34.0533 56.9027 33.8813 57.6307 33.536C58.3573 33.192 59 32.7227 59.5547 32.1293C60.1093 31.536 60.5587 30.8467 60.904 30.0627C61.2493 29.2787 61.4213 28.4453 61.4213 27.564C61.4213 26.3787 61.1227 25.3733 60.5307 24.5493C59.9373 23.7267 59.1227 23.3147 58.0907 23.3147H46.8347L44.596 34.0533H55.448ZM43.964 4.97333e-06H64.8667C66.0147 4.97333e-06 67.0187 0.240004 67.8813 0.718671C68.7427 1.19734 69.4587 1.82 70.0347 2.584C70.6093 3.35067 71.04 4.23067 71.3267 5.22534C71.6133 6.22267 71.7573 7.25601 71.7573 8.32667C71.7573 9.51467 71.5747 10.6813 71.212 11.8307C70.8467 12.9787 70.3213 14.0693 69.6333 15.104C68.944 16.1373 68.1107 17.0653 67.1347 17.888C66.1587 18.712 65.0747 19.372 63.8893 19.8693C65.612 20.444 66.9333 21.4293 67.852 22.8267C68.772 24.224 69.2307 25.9373 69.2307 27.9667C69.2307 30.0333 68.8093 31.8627 67.9667 33.4507C67.124 35.04 65.9947 36.3787 64.5787 37.4707C63.1627 38.5613 61.536 39.3853 59.6987 39.94C57.86 40.4947 55.9653 40.772 54.0133 40.772H35.292L43.964 4.97333e-06Z" fill="white"/>
<path d="M89.3289 41.0592C86.8783 41.0592 84.8009 40.7059 83.0983 39.9966C81.3956 39.2886 80.0076 38.3126 78.9343 37.0686C77.8623 35.8246 77.0876 34.3686 76.6089 32.7032C76.1316 31.0379 75.8916 29.2299 75.8916 27.2779C75.8916 25.1712 76.1396 23.0086 76.6369 20.7872L81.0596 0.000569566H88.9263L84.5049 20.7872C84.3129 21.6699 84.1689 22.5392 84.0756 23.4006C83.9783 24.2619 83.9316 25.0952 83.9316 25.8992C83.9316 27.0472 84.0463 28.1192 84.2756 29.1152C84.5049 30.1112 84.8969 30.9726 85.4529 31.6992C86.0076 32.4272 86.7156 33.0006 87.5769 33.4219C88.4383 33.8432 89.5009 34.0539 90.7649 34.0539C92.4863 34.0539 94.0183 33.6699 95.3583 32.9046C96.6969 32.1392 97.8569 31.1446 98.8329 29.9192C99.8089 28.6939 100.622 27.2872 101.273 25.6979C101.922 24.1099 102.421 22.4739 102.766 20.7872L107.188 0.000569566H115.054L110.634 20.7872C110.06 23.5832 109.177 26.2059 107.992 28.6552C106.805 31.1059 105.33 33.2499 103.57 35.0872C101.808 36.9246 99.7423 38.3792 97.3676 39.4512C94.9929 40.5232 92.3143 41.0592 89.3289 41.0592Z" fill="white"/>
<path d="M122.979 0.0578892H130.845L122.175 40.7726H114.307L122.979 0.0578892Z" fill="white"/>
<path d="M139.344 0.00067636H147.211L140.034 33.8233H159.499L158.064 40.7727H130.672L139.344 0.00067636Z" fill="white"/>
<path d="M178.506 33.8236C180.689 33.8236 182.67 33.3636 184.45 32.445C186.23 31.5263 187.753 30.293 189.015 28.741C190.279 27.1903 191.255 25.4023 191.945 23.373C192.633 21.3436 192.978 19.201 192.978 16.941C192.978 13.9543 192.239 11.5436 190.766 9.7063C189.293 7.86764 187.121 6.94897 184.25 6.94897H177.931L172.247 33.8236H178.506ZM171.558 0.000967718H185.742C188.383 0.000967718 190.67 0.412969 192.603 1.23564C194.537 2.05964 196.137 3.1783 197.399 4.59564C198.663 6.01164 199.601 7.67697 200.214 9.5903C200.825 11.505 201.133 13.573 201.133 15.793C201.133 19.3916 200.53 22.713 199.322 25.7556C198.117 28.7996 196.431 31.4316 194.27 33.6516C192.106 35.873 189.561 37.6143 186.633 38.877C183.703 40.1396 180.517 40.7716 177.071 40.7716H162.886L171.558 0.000967718Z" fill="white"/>
<path d="M212.63 35.8196C214.724 35.8196 216.82 34.9663 218.915 33.2636L213.055 24.6343C211.351 25.665 210.091 26.685 209.274 27.697C208.458 28.709 208.048 29.889 208.048 31.2383C208.048 32.7303 208.492 33.8663 209.379 34.6476C210.268 35.429 211.351 35.8196 212.63 35.8196ZM221.578 37.2036C219.874 38.5543 218.098 39.5743 216.252 40.2663C214.404 40.9596 212.576 41.305 210.766 41.305C209.203 41.305 207.827 41.0556 206.638 40.5596C205.447 40.0636 204.444 39.397 203.628 38.5623C202.811 37.7276 202.191 36.7516 201.764 35.633C201.338 34.5143 201.126 33.3156 201.126 32.037C201.126 30.6183 201.366 29.3303 201.843 28.177C202.324 27.0223 202.971 25.9663 203.788 25.0076C204.604 24.0476 205.547 23.1703 206.611 22.3703C207.676 21.5716 208.812 20.7996 210.02 20.0543C209.096 18.6343 208.439 17.3823 208.048 16.2983C207.658 15.2156 207.463 14.1063 207.463 12.9703C207.463 11.4796 207.783 10.085 208.423 8.78896C209.06 7.49296 209.931 6.38363 211.032 5.45963C212.132 4.53829 213.392 3.80896 214.814 3.27696C216.232 2.74363 217.724 2.47829 219.287 2.47829C221.419 2.47829 223.318 3.04629 224.988 4.18229C226.655 5.31829 227.81 7.00496 228.448 9.24096L223.495 12.0116C223.104 10.6623 222.456 9.6143 221.551 8.86896C220.646 8.12363 219.678 7.75029 218.648 7.75029C218.046 7.75029 217.476 7.85696 216.943 8.07029C216.411 8.28229 215.932 8.56763 215.506 8.92229C215.08 9.27829 214.743 9.70363 214.492 10.201C214.246 10.6983 214.12 11.2303 214.12 11.7983C214.12 12.509 214.37 13.3076 214.867 14.1956C215.364 15.0836 216.215 16.397 217.423 18.1356L223.655 27.1903C224.294 25.949 224.854 24.617 225.332 23.197C225.812 21.7756 226.194 20.249 226.478 18.6156H236.064L235.267 23.729H230.951C230.42 25.2556 229.798 26.685 229.088 28.0156C228.378 29.3476 227.614 30.5823 226.798 31.7183L233.136 40.773H224.027L221.578 37.2036Z" fill="white"/>
<path d="M82.0516 45.6849H113.961L112.225 54.0783H89.7502L87.2529 65.9396H106.606L104.942 73.7089H85.5889L82.8836 86.5423H105.913L104.109 94.9356H71.5769L82.0516 45.6849Z" fill="white"/>
<path d="M130.536 86.5416C133.172 86.5416 135.565 85.987 137.716 84.8763C139.866 83.767 141.704 82.2763 143.23 80.403C144.756 78.5283 145.936 76.3683 146.768 73.9163C147.6 71.4656 148.016 68.8776 148.016 66.1483C148.016 62.5416 147.125 59.627 145.345 57.407C143.564 55.1883 140.941 54.0776 137.472 54.0776H129.842L122.974 86.5416H130.536ZM122.142 45.6843H139.276C142.466 45.6843 145.23 46.183 147.565 47.1763C149.9 48.171 151.832 49.5243 153.357 51.235C154.882 52.9456 156.016 54.9576 156.756 57.2696C157.496 59.5816 157.865 62.079 157.865 64.7603C157.865 69.1083 157.138 73.119 155.681 76.795C154.224 80.4723 152.189 83.651 149.576 86.3336C146.964 89.015 143.889 91.119 140.352 92.6456C136.813 94.171 132.964 94.935 128.802 94.935H111.669L122.142 45.6843Z" fill="white"/>
<path d="M170.143 45.7552H179.645L169.171 94.9352H159.669L170.143 45.7552Z" fill="white"/>
<path d="M189.911 45.6849H221.403L219.599 54.0783H197.611L194.975 66.7716H213.148L211.484 74.5423H193.311L188.939 94.9356H179.438L189.911 45.6849Z" fill="white"/>
<path d="M232.917 77.5938L222.929 45.6844H233.333L239.437 69.4071L255.808 45.6844H266.143L242.351 77.7324L238.744 94.9351H229.241L232.917 77.5938Z" fill="white"/>
<path d="M33.3068 45.4765L64.9174 94.7099L75.3881 45.4765H33.3068Z" fill="white"/>
<path d="M64.9133 94.7252H64.9267L64.9173 94.7092L64.9133 94.7252Z" fill="white"/>
</svg>
