<svg width="376" height="137" viewBox="0 0 376 137" fill="none" xmlns="http://www.w3.org/2000/svg">
<path d="M53.5508 114.799H62.7121V105.638H53.5508V114.799Z" fill="#4AAA47"/>
<path d="M39.8188 114.799H48.9815V105.638H39.8188V114.799Z" fill="#4AAA47"/>
<path d="M53.5508 128.261H62.7121V119.099H53.5508V128.261Z" fill="#4AAA47"/>
<path d="M39.8188 128.261H48.9815V119.099H39.8188V128.261Z" fill="#4AAA47"/>
<path d="M20.7413 125.961L60.4147 64.1588H46.684L0 136.879H0.755999C8.84267 136.879 16.3733 132.767 20.7413 125.961Z" fill="#1654A5"/>
<path d="M81.7113 24.0624C82.6833 24.0624 83.6419 23.8464 84.5873 23.4144C85.5313 22.9824 86.3819 22.3744 87.1393 21.5904C87.8953 20.8091 88.5033 19.8638 88.9619 18.7558C89.4206 17.6491 89.6513 16.4211 89.6513 15.0691C89.6513 13.3958 89.2459 12.0598 88.4353 11.0598C87.6259 10.0611 86.5446 9.56109 85.1953 9.56109H71.0993L68.0193 24.0624H81.7113ZM78.2273 48.0424C79.2526 48.0424 80.2793 47.7998 81.3059 47.3131C82.3313 46.8278 83.2366 46.1664 84.0206 45.3291C84.8019 44.4918 85.4379 43.5198 85.9246 42.4118C86.4099 41.3064 86.6539 40.1304 86.6539 38.8878C86.6539 37.2144 86.2339 35.7971 85.3979 34.6344C84.5593 33.4744 83.4126 32.8931 81.9553 32.8931H66.0753L62.9153 48.0424H78.2273ZM62.0246 0.00109189H91.5139C93.1339 0.00109189 94.5526 0.339757 95.7673 1.01309C96.9833 1.68909 97.9953 2.56643 98.8059 3.64643C99.6153 4.72776 100.223 5.96909 100.629 7.37309C101.034 8.77842 101.237 10.2371 101.237 11.7478C101.237 13.4224 100.979 15.0691 100.466 16.6904C99.9526 18.3104 99.2113 19.8491 98.2393 21.3078C97.2673 22.7664 96.0913 24.0758 94.7139 25.2371C93.3366 26.3984 91.8099 27.3304 90.1366 28.0318C92.5673 28.8424 94.4313 30.2331 95.7273 32.2038C97.0233 34.1758 97.6713 36.5931 97.6713 39.4544C97.6713 42.3718 97.0766 44.9518 95.8886 47.1918C94.7006 49.4344 93.1059 51.3238 91.1086 52.8638C89.1099 54.4024 86.8153 55.5638 84.2233 56.3464C81.6299 57.1304 78.9566 57.5211 76.2019 57.5211H49.7913L62.0246 0.00109189Z" fill="#12ACDA"/>
<path d="M126.026 57.9263C122.568 57.9263 119.638 57.4276 117.236 56.4276C114.832 55.4289 112.874 54.0516 111.362 52.2956C109.85 50.5409 108.756 48.4876 108.082 46.1383C107.406 43.7889 107.068 41.2369 107.068 38.4823C107.068 35.5129 107.419 32.4609 108.122 29.3276L114.359 0.000939325H125.459L119.22 29.3276C118.95 30.5716 118.747 31.7996 118.612 33.0143C118.478 34.2303 118.411 35.4036 118.411 36.5383C118.411 38.1583 118.572 39.6716 118.896 41.0756C119.22 42.4809 119.774 43.6956 120.558 44.7209C121.339 45.7476 122.339 46.5583 123.555 47.1516C124.771 47.7463 126.27 48.0423 128.051 48.0423C130.482 48.0423 132.642 47.5036 134.532 46.4223C136.422 45.3423 138.056 43.9383 139.434 42.2089C140.811 40.4823 141.958 38.4969 142.878 36.2556C143.795 34.0143 144.498 31.7049 144.983 29.3276L151.222 0.000939325H162.32L156.082 29.3276C155.272 33.2716 154.028 36.9716 152.356 40.4263C150.682 43.8836 148.602 46.9089 146.118 49.5009C143.632 52.0929 140.716 54.1463 137.368 55.6583C134.019 57.1703 130.239 57.9263 126.026 57.9263Z" fill="#12ACDA"/>
<path d="M173.5 0.0818464H184.598L172.365 57.5219H161.266L173.5 0.0818464Z" fill="#12ACDA"/>
<path d="M196.588 0.000547602H207.687L197.56 47.7192H225.024L222.999 57.5219H184.355L196.588 0.000547602Z" fill="#12ACDA"/>
<path d="M251.84 47.7187C254.918 47.7187 257.713 47.0707 260.225 45.7747C262.736 44.4773 264.882 42.736 266.665 40.5493C268.448 38.3613 269.825 35.8373 270.797 32.9733C271.769 30.112 272.256 27.088 272.256 23.9C272.256 19.688 271.214 16.2853 269.136 13.692C267.057 11.1 263.992 9.804 259.941 9.804H251.029L243.009 47.7187H251.84ZM242.037 -1.65772e-06H262.048C265.774 -1.65772e-06 269.001 0.581336 271.729 1.74267C274.456 2.90534 276.71 4.484 278.493 6.48267C280.276 8.48134 281.598 10.8293 282.464 13.5307C283.326 16.232 283.76 19.148 283.76 22.28C283.76 27.3573 282.909 32.0427 281.208 36.336C279.506 40.6307 277.129 44.344 274.078 47.476C271.026 50.608 267.434 53.0653 263.304 54.848C259.172 56.6307 254.674 57.5213 249.814 57.5213H229.804L242.037 -1.65772e-06Z" fill="#12ACDA"/>
<path d="M299.98 50.5344C302.935 50.5344 305.891 49.3317 308.847 46.9277L300.582 34.7544C298.176 36.2077 296.398 37.6477 295.246 39.0757C294.092 40.5037 293.518 42.1691 293.518 44.0717C293.518 46.1757 294.144 47.7797 295.396 48.8811C296.648 49.9837 298.176 50.5344 299.98 50.5344ZM312.604 52.4877C310.199 54.3931 307.694 55.8317 305.09 56.8091C302.484 57.7851 299.904 58.2744 297.35 58.2744C295.146 58.2744 293.204 57.9237 291.527 57.2224C289.847 56.5211 288.432 55.5824 287.282 54.4037C286.128 53.2277 285.252 51.8491 284.651 50.2717C284.05 48.6931 283.75 47.0024 283.75 45.1997C283.75 43.1971 284.088 41.3797 284.763 39.7517C285.44 38.1237 286.354 36.6331 287.507 35.2811C288.658 33.9278 289.986 32.6877 291.488 31.5611C292.992 30.4344 294.594 29.3437 296.298 28.2917C294.995 26.2891 294.068 24.5237 293.518 22.9944C292.966 21.4677 292.691 19.9024 292.691 18.2984C292.691 16.1944 293.143 14.2291 294.044 12.3998C294.946 10.5718 296.172 9.00642 297.726 7.70375C299.278 6.40108 301.056 5.37442 303.062 4.62242C305.064 3.87042 307.168 3.49575 309.372 3.49575C312.379 3.49575 315.058 4.29708 317.414 5.89975C319.767 7.50375 321.396 9.88242 322.298 13.0384L315.31 16.9464C314.758 15.0424 313.843 13.5638 312.566 12.5118C311.288 11.4611 309.924 10.9344 308.471 10.9344C307.619 10.9344 306.818 11.0851 306.066 11.3851C305.315 11.6864 304.639 12.0878 304.038 12.5878C303.436 13.0891 302.96 13.6904 302.61 14.3918C302.259 15.0931 302.084 15.8451 302.084 16.6451C302.084 17.6477 302.434 18.7757 303.136 20.0264C303.838 21.2797 305.039 23.1331 306.743 25.5878L315.535 38.3611C316.436 36.6091 317.226 34.7291 317.902 32.7264C318.578 30.7224 319.116 28.5677 319.516 26.2638H333.043L331.915 33.4771H325.828C325.078 35.6317 324.2 37.6478 323.199 39.5264C322.196 41.4051 321.119 43.1451 319.968 44.7491L328.91 57.5224H316.06L312.604 52.4877Z" fill="#4AAA47"/>
<path d="M115.759 64.453H160.775L158.328 76.2943H126.621L123.099 93.029H150.401L148.053 103.989H120.749L116.933 122.093H149.423L146.879 133.934H100.981L115.759 64.453Z" fill="#1654A5"/>
<path d="M184.162 122.093C187.881 122.093 191.257 121.31 194.291 119.745C197.325 118.178 199.918 116.074 202.071 113.433C204.223 110.789 205.887 107.741 207.062 104.282C208.235 100.826 208.823 97.173 208.823 93.3223C208.823 88.233 207.566 84.1223 205.055 80.9916C202.543 77.8596 198.841 76.2943 193.949 76.2943H183.183L173.495 122.093H184.162ZM172.321 64.453H196.493C200.994 64.453 204.891 65.1556 208.187 66.557C211.481 67.961 214.206 69.869 216.358 72.2823C218.511 74.697 220.109 77.5343 221.154 80.7956C222.197 84.0596 222.719 87.581 222.719 91.365C222.719 97.4983 221.691 103.157 219.637 108.344C217.581 113.53 214.71 118.016 211.025 121.8C207.338 125.584 203.001 128.553 198.01 130.705C193.019 132.857 187.587 133.934 181.717 133.934H157.545L172.321 64.453Z" fill="#1654A5"/>
<path d="M240.039 64.5513H253.445L238.669 133.934H225.261L240.039 64.5513Z" fill="#1654A5"/>
<path d="M267.928 64.453H312.357L309.813 76.2943H278.791L275.072 94.2036H300.711L298.363 105.164H272.724L266.559 133.934H253.151L267.928 64.453Z" fill="#1654A5"/>
<path d="M328.602 109.469L314.51 64.4532H329.189L337.801 97.9225L360.895 64.4532H375.477L341.91 109.664L336.822 133.935H323.415L328.602 109.469Z" fill="#1654A5"/>
<path d="M46.99 64.1593L91.586 133.618L106.358 64.1593H46.99Z" fill="#12ACDA"/>
<path d="M91.5803 133.64H91.599L91.5857 133.617L91.5803 133.64Z" fill="#231F20"/>
</svg>
